<?xml version="1.0" encoding="utf-8"?>
<!-- Generator: Adobe Illustrator 18.1.1, SVG Export Plug-In . SVG Version: 6.00 Build 0)  -->
<svg version="1.1" id="Layer_1" xmlns="http://www.w3.org/2000/svg" xmlns:xlink="http://www.w3.org/1999/xlink" x="0px" y="0px"
	 width="148px" height="17px" viewBox="0 0 148 17" enable-background="new 0 0 148 17" xml:space="preserve">
<g>
	<path fill-rule="evenodd" clip-rule="evenodd" fill="#FFFFFF" d="M77.1,0c1.2,0,2.3,0.2,3.3,0.7c1,0.4,1.9,1,2.7,1.8
		c0.8,0.8,1.4,1.7,1.8,2.7c0.4,1,0.7,2.1,0.7,3.3v8.5h-8.4c-1.2,0-2.2-0.2-3.3-0.7c-1-0.4-1.9-1-2.7-1.8c-0.8-0.8-1.4-1.7-1.8-2.7
		c-0.4-1-0.7-2.1-0.7-3.3c0-1.2,0.2-2.3,0.7-3.3c0.4-1,1-1.9,1.8-2.7c0.8-0.8,1.7-1.4,2.7-1.8C74.9,0.2,75.9,0,77.1,0L77.1,0z
		 M20.6,17h-3.4V0.1h3.4v6.7h8.2V0h3.4c0,5.5,0,11.3,0,16.9h-3.4v-6.8h-8.2V17L20.6,17z M98.2,0v3.4h-1.7c-0.7,0-1.4,0.1-2,0.4
		c-0.6,0.3-1.2,0.6-1.6,1.1c-0.5,0.5-0.8,1-1.1,1.6c-0.3,0.6-0.4,1.3-0.4,2v8.5H88V8.4c0-1.2,0.2-2.3,0.7-3.3c0.4-1,1.1-1.9,1.8-2.7
		c0.8-0.8,1.7-1.4,2.7-1.8c1-0.4,2.1-0.7,3.3-0.7H98.2L98.2,0z M70,0h-3.8l-5,12.3L56.1,0h-3.8l7,17h3.5L70,0L70,0z M51.5,0v8.4
		c0,1.2-0.2,2.2-0.7,3.3c-0.4,1-1,1.9-1.8,2.7c-0.8,0.8-1.7,1.4-2.7,1.8c-1,0.4-2.1,0.7-3.3,0.7c-1.2,0-2.2-0.2-3.3-0.7
		c-1-0.4-1.9-1-2.7-1.8c-0.8-0.8-1.4-1.7-1.8-2.7c-0.4-1-0.7-2.1-0.7-3.3V0H38v8.4c0,0.7,0.1,1.4,0.4,2c0.3,0.6,0.6,1.2,1.1,1.6
		c0.5,0.5,1,0.8,1.6,1.1c0.6,0.3,1.3,0.4,2,0.4c0.7,0,1.4-0.1,2-0.4c0.6-0.3,1.2-0.6,1.6-1.1c0.5-0.5,0.8-1,1.1-1.6
		c0.3-0.6,0.4-1.3,0.4-2V0H51.5L51.5,0z M14.4,0v3.4H4.8c-0.4,0-0.8,0.2-1.1,0.5C3.3,4.2,3.2,4.6,3.2,5c0,0.5,0.2,0.9,0.5,1.2
		c0.3,0.3,0.7,0.5,1.1,0.5h6.4c0.7,0,1.3,0.1,1.9,0.4c0.6,0.3,1.1,0.6,1.5,1.1c0.4,0.5,0.8,1,1,1.6c0.2,0.6,0.4,1.3,0.4,2
		c0,0.7-0.1,1.4-0.4,2c-0.2,0.6-0.6,1.2-1,1.6c-0.4,0.5-0.9,0.8-1.5,1.1c-0.6,0.3-1.2,0.4-1.9,0.4H1.6v-3.4h9.6
		c0.5,0,0.9-0.2,1.2-0.5c0.3-0.3,0.5-0.7,0.5-1.2c0-0.5-0.2-0.9-0.5-1.2c-0.3-0.3-0.7-0.5-1.2-0.5H4.8c-0.7,0-1.3-0.1-1.9-0.4
		C2.3,9.5,1.8,9.1,1.4,8.6C1,8.2,0.6,7.6,0.4,7C0.1,6.4,0,5.8,0,5c0-0.7,0.1-1.4,0.4-2c0.2-0.6,0.6-1.1,1-1.6C1.8,1,2.3,0.7,2.9,0.4
		C3.5,0.1,4.1,0,4.8,0H14.4L14.4,0z M82.2,13.6V8.4c0-0.7-0.1-1.4-0.4-2c-0.3-0.6-0.6-1.2-1.1-1.6c-0.5-0.5-1-0.8-1.6-1.1
		c-0.6-0.3-1.3-0.4-2-0.4c-0.7,0-1.4,0.1-2,0.4c-0.6,0.3-1.2,0.6-1.6,1.1c-0.5,0.5-0.8,1-1.1,1.6c-0.3,0.6-0.4,1.3-0.4,2
		c0,0.7,0.1,1.4,0.4,2c0.3,0.6,0.6,1.2,1.1,1.6c0.5,0.5,1,0.8,1.6,1.1c0.6,0.3,1.3,0.4,2,0.4H82.2z"/>
	<path fill-rule="evenodd" clip-rule="evenodd" fill="#2491D0" d="M109.2,0l28.6,0h1.7c1.2,0,2.3,0.2,3.3,0.7c1,0.4,1.9,1,2.7,1.8
		c0.8,0.8,1.4,1.7,1.8,2.7c0.4,1,0.7,2.1,0.7,3.3V17l-3.4,0L116,17h-1.7c-1.2,0-2.3-0.2-3.3-0.7c-1-0.4-1.9-1-2.7-1.8
		c-0.8-0.8-1.4-1.7-1.8-2.7c-0.4-1-0.7-2.1-0.7-3.3V0H109.2z"/>
	<path fill-rule="evenodd" clip-rule="evenodd" fill="#FFFFFF" d="M114.4,3c0.1,0,0.2,0,0.3,0.1c0.1,0.1,0.1,0.2,0.1,0.3v1.2
		c0,0.1,0,0.2-0.1,0.3c-0.1,0.1-0.2,0.1-0.3,0.1h-1.4c-0.1,0-0.2,0-0.3-0.1c-0.1-0.1-0.1-0.2-0.1-0.3V3.4c0-0.1,0-0.2,0.1-0.3
		c0.1-0.1,0.2-0.1,0.3-0.1H114.4L114.4,3z M114.8,13.9c0,0.1,0,0.2-0.1,0.3c-0.1,0.1-0.2,0.1-0.3,0.1h-1.2c-0.1,0-0.2,0-0.3-0.1
		c-0.1-0.1-0.1-0.2-0.1-0.3V6.5c0-0.1,0-0.2,0.1-0.3c0.1-0.1,0.2-0.1,0.3-0.1h1.2c0.1,0,0.2,0,0.3,0.1c0.1,0.1,0.1,0.2,0.1,0.3V13.9
		L114.8,13.9z M124.8,13.9c0,0.1,0,0.2-0.1,0.3c-0.1,0.1-0.2,0.1-0.3,0.1h-1.2c-0.1,0-0.2,0-0.3-0.1c-0.1-0.1-0.1-0.2-0.1-0.3v-4
		c0-0.7-0.2-1.2-0.5-1.5c-0.3-0.4-0.8-0.6-1.4-0.6c-0.6,0-1,0.2-1.3,0.6c-0.3,0.4-0.5,0.9-0.5,1.5v4c0,0.1,0,0.2-0.1,0.3
		c-0.1,0.1-0.2,0.1-0.3,0.1h-1.2c-0.1,0-0.2,0-0.3-0.1c-0.1-0.1-0.1-0.2-0.1-0.3V6.5c0-0.1,0-0.2,0.1-0.3c0.1-0.1,0.2-0.1,0.3-0.1
		h1.2c0.1,0,0.2,0,0.3,0.1c0.1,0.1,0.1,0.2,0.1,0.3v0.4c0.6-0.6,1.4-1,2.3-1c1.2,0,2.1,0.3,2.6,1c0.5,0.7,0.8,1.6,0.8,2.7V13.9
		L124.8,13.9z M131.8,6c0.1,0,0.2,0,0.3,0.1c0.1,0.1,0.1,0.2,0.1,0.3v1.1c0,0.1,0,0.2-0.1,0.3c-0.1,0.1-0.2,0.1-0.3,0.1h-2.2v5.9
		c0,0.1,0,0.2-0.1,0.3c-0.1,0.1-0.2,0.1-0.3,0.1H128c-0.1,0-0.2,0-0.3-0.1c-0.1-0.1-0.1-0.2-0.1-0.3V7.9h-1c-0.1,0-0.2,0-0.3-0.1
		c-0.1-0.1-0.1-0.2-0.1-0.3V6.5c0-0.1,0-0.2,0.1-0.3c0.1-0.1,0.2-0.1,0.3-0.1h1V5.3c0-1,0.3-1.7,0.8-2.1c0.5-0.4,1.3-0.7,2.3-0.7
		h1.3c0.1,0,0.2,0,0.3,0.1c0.1,0.1,0.1,0.2,0.1,0.3v1c0,0.1,0,0.2-0.1,0.3c-0.1,0.1-0.2,0.1-0.3,0.1h-1.1c-0.4,0-0.7,0.1-0.9,0.2
		c-0.2,0.2-0.3,0.4-0.3,0.8V6H131.8L131.8,6z M141.1,9.4c0,0.3,0,0.5,0,0.8c0,0.3,0,0.5,0,0.8c-0.1,0.6-0.2,1.2-0.6,1.8
		c-0.3,0.5-0.8,0.9-1.4,1.3c-0.6,0.3-1.3,0.5-2,0.5c-0.8,0-1.4-0.2-2-0.5c-0.6-0.3-1.1-0.7-1.4-1.3c-0.3-0.5-0.5-1.1-0.6-1.8
		c0-0.1,0-0.4,0-0.8c0-0.4,0-0.7,0-0.8c0.1-0.7,0.2-1.3,0.6-1.8c0.3-0.5,0.8-0.9,1.4-1.3c0.6-0.3,1.3-0.5,2-0.5c0.8,0,1.4,0.2,2,0.5
		c0.6,0.3,1.1,0.7,1.4,1.3C140.9,8.1,141.1,8.7,141.1,9.4L141.1,9.4z M137.1,7.8c-0.5,0-0.9,0.1-1.3,0.4c-0.4,0.3-0.6,0.7-0.6,1.3
		c0,0.1,0,0.3,0,0.7c0,0.4,0,0.6,0,0.7c0.1,0.6,0.3,1,0.6,1.3c0.4,0.3,0.8,0.4,1.3,0.4c0.5,0,0.9-0.1,1.3-0.4
		c0.4-0.3,0.6-0.7,0.6-1.3c0-0.2,0-0.5,0-0.7c0-0.3,0-0.5,0-0.7c-0.1-0.6-0.3-1-0.6-1.3C138.1,7.9,137.6,7.8,137.1,7.8z"/>
</g>
</svg>
