<?xml version="1.0" encoding="utf-8"?>
<!-- Generator: Adobe Illustrator 18.1.1, SVG Export Plug-In . SVG Version: 6.00 Build 0)  -->
<svg version="1.1" id="Layer_1" xmlns="http://www.w3.org/2000/svg" xmlns:xlink="http://www.w3.org/1999/xlink" x="0px" y="0px"
	 width="80px" height="80px" viewBox="0 0 80 80" enable-background="new 0 0 80 80" xml:space="preserve">
<g>
	<path fill="#039BE5" d="M53.3,47.8l0.2,0.3h0.4L70.9,48l1.1,0l-0.5-0.9L51.2,12.3L51,12h-0.4L33.6,12l-1.1,0l0.5,0.9L53.3,47.8z"/>
	<path fill="#039BE5" d="M38.4,30.1l-0.2-0.3l-8.8-15l-0.5-0.9l-0.5,0.9L8.1,49.7L8,50l0.2,0.3l8.8,15l0.5,0.9l0.5-0.9l20.2-34.9
		L38.4,30.1z"/>
	<path fill="#039BE5" d="M30.7,51.9h-0.4l-0.2,0.3l-8.7,14.9L21,68h41.6l0.2-0.3l8.7-14.9l0.5-0.9H30.7z"/>
</g>
</svg>
