<?xml version="1.0" encoding="utf-8"?>
<!-- Generator: Adobe Illustrator 18.1.1, SVG Export Plug-In . SVG Version: 6.00 Build 0)  -->
<svg version="1.1" id="Layer_1" xmlns="http://www.w3.org/2000/svg" xmlns:xlink="http://www.w3.org/1999/xlink" x="0px" y="0px"
	 width="80px" height="80px" viewBox="0 0 80 80" enable-background="new 0 0 80 80" xml:space="preserve">
<g>
	<path fill="#039BE5" d="M65.8,16.9v32.3c0,5.8-4.5,10.5-10.3,10.5h-1.4c-5.8,0-10.3-4.7-10.3-10.5V35.6c0-2-1.6-4.4-3.6-4.4H25.7
		c-2,0-3.8,2.2-3.8,4.1c0,1.9,1.8,4.1,3.8,4.2l1.8,0.1C33.3,40,37.8,44.6,37.6,50c-0.2,5.4-5,9.7-10.7,9.7H10.6
		C16.9,68.9,27.5,75,39.5,75c19.3,0,35-15.7,35-35C74.5,31.1,71.2,23.1,65.8,16.9z"/>
	<path fill="#039BE5" d="M30.8,49.8c0.1-1.7-1.6-3.2-3.6-3.3l-1.8-0.1c-5.7-0.3-10.1-5.5-10.1-11c0-5.7,4.5-10.7,10.3-10.7h13.8
		c5.8,0,11,5.1,11,10.9v13.5c0,2,1.7,3.7,3.7,3.7h1.4c2,0,3.7-1.7,3.7-3.7V11c-5.6-3.8-12.4-6-19.6-6c-19.3,0-35,15.7-35,35
		c0,4.6,0.9,9,2.5,13.1h19.9C29,53.1,30.8,51.4,30.8,49.8z"/>
</g>
</svg>
