<?xml version="1.0" encoding="utf-8"?>
<!-- Generator: Adobe Illustrator 18.1.1, SVG Export Plug-In . SVG Version: 6.00 Build 0)  -->
<svg version="1.1" id="Layer_1" xmlns="http://www.w3.org/2000/svg" xmlns:xlink="http://www.w3.org/1999/xlink" x="0px" y="0px"
	 width="80px" height="80px" viewBox="0 0 80 80" enable-background="new 0 0 80 80" xml:space="preserve">
<g>
	<path fill="#039BE5" d="M63.8,61.5c-27.4,13-44.4,2.1-55.3-4.5c-0.7-0.4-1.8,0.1-0.8,1.2c3.6,4.4,15.5,15,31,15
		c15.5,0,24.8-8.5,25.9-10C65.8,61.8,65,61,63.8,61.5z M71.5,57.3c-0.7-1-4.5-1.1-6.8-0.8c-2.4,0.3-5.9,1.7-5.6,2.6
		c0.2,0.3,0.5,0.2,2.1,0c1.6-0.2,6.2-0.7,7.1,0.5c1,1.2-1.5,7.2-1.9,8.1c-0.4,1,0.2,1.2,1,0.6c0.8-0.6,2.2-2.3,3.2-4.6
		C71.5,61.3,72,58,71.5,57.3z"/>
	<path fill="#039BE5" d="M56.9,40.8V19c0-3.8-3.6-12.2-16.7-12.2c-13,0-20,8.2-20,15.5l10.9,1c0,0,2.4-7.3,8.1-7.3s5.2,4.6,5.2,5.6
		v4.7c-7.2,0.2-25.1,2.3-25.1,17.4c0,16.3,20.5,16.9,27.2,6.4c0.3,0.4,0.6,0.8,0.9,1.2c2.5,2.6,5.8,5.7,5.8,5.7l8.4-8.3
		C61.6,48.6,56.9,44.9,56.9,40.8z M31.9,41.6c0-7,7.5-8.4,12.5-8.6v6C44.4,50.9,31.9,49.1,31.9,41.6z"/>
</g>
</svg>
