<?xml version="1.0" encoding="utf-8"?>
<!-- Generator: Adobe Illustrator 18.1.1, SVG Export Plug-In . SVG Version: 6.00 Build 0)  -->
<svg version="1.1" id="Layer_1" xmlns="http://www.w3.org/2000/svg" xmlns:xlink="http://www.w3.org/1999/xlink" x="0px" y="0px"
	 width="80px" height="80px" viewBox="0 0 80 80" enable-background="new 0 0 80 80" xml:space="preserve">
<g>
	<path fill="#039BE5" d="M11.6,12.6c-0.1,0.5-0.2,1.1-0.2,1.7v51.5c0,0.6,0.1,1.2,0.2,1.7L40.4,40L11.6,12.6z"/>
	<path fill="#039BE5" d="M51.7,29.4L18,10.6c-1.3-0.8-2.7-1-3.8-0.7l29,27.6L51.7,29.4z"/>
	<path fill="#039BE5" d="M64.1,36.3l-9-5L45.9,40l9.4,8.9l8.8-4.8C68.3,41.7,66.8,37.8,64.1,36.3z"/>
	<path fill="#039BE5" d="M14.1,70.1c1.1,0.3,2.5,0.1,3.9-0.7l33.8-18.6l-8.7-8.2L14.1,70.1z"/>
</g>
</svg>
