<?xml version="1.0" encoding="utf-8"?>
<!-- Generator: Adobe Illustrator 18.1.1, SVG Export Plug-In . SVG Version: 6.00 Build 0)  -->
<svg version="1.1" id="Capa_1" xmlns="http://www.w3.org/2000/svg" xmlns:xlink="http://www.w3.org/1999/xlink" x="0px" y="0px"
	 width="250px" height="250px" viewBox="0 250 250 250" enable-background="new 0 250 250 250" xml:space="preserve">
<g>
	<path d="M173.8,359.8l-5.5-28.1l-28.1-5.5l9.6-27l-15.7-14l-103,76.5c-3,2.2-5.9,4.7-8.6,7.4c-30,30-30,78.5,0,108.5
		s78.5,30,108.5,0c2.7-2.7,5.2-5.6,7.4-8.6l76.5-103l-14-15.7L173.8,359.8z"/>
	<path d="M250,261.4L238.6,250l-22.5,22.5c-19.2-14.3-45.7-14.3-65,0l-3.9,2.9l21.3,19l-6.9,19.6l20.4,4l4,20.4l19.6-6.9l19,21.3
		l2.9-3.9c14.3-19.2,14.3-45.7,0-65L250,261.4z"/>
</g>
</svg>
