<?xml version="1.0" encoding="utf-8"?>
<!-- Generator: Adobe Illustrator 18.1.1, SVG Export Plug-In . SVG Version: 6.00 Build 0)  -->
<svg version="1.1" id="Capa_1" xmlns="http://www.w3.org/2000/svg" xmlns:xlink="http://www.w3.org/1999/xlink" x="0px" y="0px"
	 width="250px" height="250px" viewBox="0 250 250 250" enable-background="new 0 250 250 250" xml:space="preserve">
<g>
	<path fill-rule="evenodd" clip-rule="evenodd" d="M144.8,370c3.1,4.8,4.5,10.1,4.5,15.3c0,8.4-3.9,16.4-11.1,20.9
		c-0.3,0.2-0.7,0.3-1,0.5l-0.5,0c0,0.1,0,0.1,0.1,0.2c-3.5,1.9-7.3,2.8-11.1,2.8c-8.8,0-17.7-4.7-23-13.2c-3-4.8-4.5-10.1-4.5-15.3
		c0-8.4,3.9-16.4,11.1-20.9c3.8-2.4,8.1-3.5,12.4-3.5c4.4,0,8.8,1.2,12.8,3.4C138.6,362.4,142.1,365.7,144.8,370z"/>
	<path fill-rule="evenodd" clip-rule="evenodd" d="M250,386.2c0-2.3-0.8-5-3-8.4c0,0-1.1-1.2-2.3-2.8c-1.1-1.6-2.3-3.5-2.3-4.9
		c0-1.1,0.8-2.6,0.8-4.5c0-2.9-2-6.9-12.3-12c-6.2-3.1-14.2-5.5-24.2-5.5c4-3.3,7.5-7,10.1-10.9c0,0,4.1-5.9,4.1-13.5
		c0-0.7,0-1.5-0.1-2.2c-0.8-7.8-1.7-12.8-1.7-15v-0.9c0-2.7-2.3-13.6-15.5-14.3c0,0-1.6-0.1-3.8-0.6c-2.2-0.5-5-1.2-7.4-2.3
		c-2.4-1.2-6.5-2.9-12.1-2.9c-5.3,0-12.1,1.6-20.4,7c-2.2-7-11.3-14-17.1-19.9c0,0-3-4.2-7.8-4.2c-0.4,0-0.8,0-1.2,0.1
		c-3,0.5-4.9,1.4-6.7,1.4c-1.5,0-2.8-0.6-4.4-2.6c-2.4-2.9-4.8-5.9-7.6-5.9c-1.3,0-2.7,0.7-4.3,2.3c-4.7,5.1-7.1,8.9-9.6,7.3
		c-1.1-0.7-2.3-1.3-3.4-1.3c-1.4,0-2.8,0.8-4,3.1c0,0-10.1,9.5-10.1,25.4c0,0.5,0,1,0,1.5c-7.1-5-15.5-9.2-25.4-11.7
		c0,0-0.8-0.2-1.9-0.2c-1.7,0-4.2,0.6-5.9,3.4c-1.4,2.3-2.3,3.9-3.6,4.9c-1.2,1-2.7,1.4-5.3,1.5c-2.5,0.1-5.6,0.6-8.1,2.1
		c-2.4,1.5-4.3,4-4.3,8.1c0,0,0.3,0.7,0.3,1.8c0,1.5-0.7,3.8-3.7,5.8c-3.1,2.1-5.5,5.3-5.5,10.3c0,3.5,1.2,7.9,4.2,13.4
		c2.6,4.8,8.2,11,16.4,17.3c-1.4,0-2.8-0.1-4.1-0.1c-8.3,0-16.3,1.3-23.5,4.3c0,0-11.1,2.5-11.1,9.3c0,0.6,0.1,1.2,0.3,1.9
		c0.8,2.9,1.1,4.9,1.1,6.4c0,2.8-1.1,3.7-1.8,5.1c-0.6,1.2-2.1,3.3-2.1,6.4c0,2.3,0.8,5.3,3.5,8.7c0,0,1.2,1.1,2.4,2.6
		c1.2,1.5,2.5,3.3,2.5,4.8v0.1c0,2.9-4.7,8.2,12.4,15.7c5.6,2.4,12.5,4.1,20.9,4.1c1.2,0,2.3,0,3.6-0.1c-3.8,3.6-7,7.4-9.5,11.5
		c0,0-3.4,5.5-3.4,12.5c0,1.1,0.1,2.3,0.3,3.4c1.4,8.3,2.6,13.2,2.6,15.2v0.2c0,0,0,0,0,0.1c0,2.2,2.6,13.7,16.4,13.7
		c0,0,1.6,0,3.8,0.4c2.2,0.3,5,0.8,7.5,1.8c2.3,0.9,5.9,2.3,10.7,2.3c5.6,0,12.8-1.8,21.5-8.2c2.2,6.4,6.2,10.5,11.7,11.1
		c5.2,0.6,8,0.8,10.1,1.3c2.1,0.5,3.3,1.3,5.2,3.1c2.7,2.3,5.6,4.7,8.8,4.7c1.5,0,3.1-0.5,4.7-1.8c3.8-3.1,6.2-4.4,9.2-4.4
		c0.9,0,2,0.1,3.1,0.4c0.4,0.1,0.8,0.1,1.3,0.1c1.3,0,3-0.3,5-0.6c3.9-0.7,6.5-10.5,6.7-20.6c6.9,5.4,15,10,24.8,13.1
		c0,0,1,0.4,2.3,0.4c1.7,0,3.9-0.6,5.6-3.1c3-4.4,4-5.9,8.6-5.9h1.2c5,0,11.8-1.7,12.4-9.5c0,0-0.2-0.6-0.2-1.5
		c0-1.5,0.7-3.9,4.1-5.9c3.4-2,6.1-5.3,6.1-10.9c0-3.3-1-7.5-3.4-12.7c-2.3-5-7.6-11.5-15.3-18.2c2.9,0.3,5.7,0.5,8.6,0.5
		c6.7,0,13.2-0.9,19.3-3.1c0,0,11.6-1.9,11.6-9c0-0.5,0-1-0.2-1.6c-0.6-2.5-0.8-4.4-0.8-5.7c0-3.3,1.3-4.2,2.1-5.6
		C248.2,391.9,250,389.7,250,386.2z M214.7,399.3c0,0-27.6-6.4-56.9-2.4c-0.1,0.4-0.2,0.8-0.4,1.1c6.6,4.8,26.7,20.8,36.4,42.9
		c0.2,0.4,0,0.7-0.3,0.3c0,0-16.7-19.8-41-34c-1.4,1.8-2.9,3.5-4.7,5c6.3,4.6,26.8,20.7,36.6,43.1c0.2,0.4,0,0.7-0.3,0.4
		c0,0-16.3-19.3-40-33.5c0.4,10.8-0.1,32.7-9.3,51.5c-0.2,0.4-0.5,0.5-0.5,0c0,0,4.4-26.4-0.8-54.5c-2.2,0.5-4.5,0.7-6.7,0.8
		c0.6,7.6,1.7,33.9-9.1,56c-0.2,0.4-0.5,0.4-0.5,0c0,0,4.7-28.4-1.5-57.7c-0.2,0-0.5-0.1-0.7-0.2c-0.3,0.5-0.8,0.8-1.3,1.2
		c-24.9,17.1-41.1,41.1-41.1,41.1c-0.2,0.3-0.5,0.1-0.3-0.3c7.6-24.3,27.6-43,32.5-47.4c-1.8-1.3-3.5-2.8-5.1-4.5
		C76.7,425,61.8,447,61.8,447c-0.2,0.3-0.5,0.1-0.3-0.4c7.4-23.5,26.3-41.8,31.9-46.9c-0.4-0.7-0.8-1.4-1.1-2.1
		c-0.3,0-0.8,0.1-1.1,0c-30.2,0.6-56.9,11.7-56.9,11.7c-0.4,0.1-0.5-0.2-0.1-0.4c22.6-18.4,54.6-21.9,54.6-21.9h0.1
		c-0.4-2.2-0.6-4.3-0.6-6.5c-29.6,0.8-55.7,11.7-55.7,11.7c-0.4,0.1-0.5-0.2-0.1-0.5C55,373.5,87.1,370,87.1,370
		c0.4-0.1,0.8-0.1,1.1-0.1C69.1,347,44,333.2,44,333.2c-0.3-0.2-0.1-0.5,0.3-0.3c24.4,5.2,44.5,22.7,49.8,27.7
		c1.3-1.9,2.7-3.6,4.3-5.2c-18.8-21.4-42.1-34.1-42.1-34.1c-0.4-0.2-0.1-0.5,0.3-0.4c25.8,5.5,47,24.9,50.6,28.4
		c0.5-0.2,1-0.5,1.6-0.7c3-29.6-4.5-57-4.5-57c-0.1-0.4,0.2-0.4,0.5,0c13,20.9,14.5,47.1,14.7,54.8c0.5,0,0.9,0,1.5,0
		c1.7,0,3.5,0.1,5.2,0.4c2.4-28.7-4.7-54.6-4.7-54.6c-0.1-0.4,0.2-0.4,0.5,0c15.4,24.7,14.7,56.9,14.7,56.9c0,0.3,0,0.7,0,0.9
		c0.2,0.1,0.5,0.3,0.7,0.4c0.2-0.1,0.5-0.2,0.7-0.4c26.6-14.1,45.4-36.3,45.4-36.3c0.3-0.3,0.5,0,0.3,0.4
		c-10,22.6-30.8,38.7-37,43.1c1.6,1.6,3.1,3.3,4.5,5.1c24.5-14.1,41.5-34.1,41.5-34.1c0.3-0.3,0.5,0,0.3,0.4
		c-8.4,19.1-24.7,33.6-33.3,40.3c9.3,0,33.6,1.3,53.7,12.7c0.4,0.2,0.4,0.5,0,0.5c0,0-26.3-6.2-54.8-2.7c0.4,2.2,0.6,4.4,0.6,6.6
		c7.5-0.1,33.9,0.4,55.4,12.7C215.1,399,215.1,399.3,214.7,399.3z"/>
</g>
</svg>
