<?xml version="1.0" encoding="utf-8"?>
<!-- Generator: Adobe Illustrator 18.1.1, SVG Export Plug-In . SVG Version: 6.00 Build 0)  -->
<svg version="1.1" id="Layer_1" xmlns="http://www.w3.org/2000/svg" xmlns:xlink="http://www.w3.org/1999/xlink" x="0px" y="0px"
	 width="250px" height="250px" viewBox="0 250 250 250" enable-background="new 0 250 250 250" xml:space="preserve">
<path fill-rule="evenodd" clip-rule="evenodd" d="M173.5,305.3c-12.1,0-26.2,3.3-42.2,10.7c-2.4,1.1-5.1,2.3-7.8,3.3
	c-12.1-41.2,14.7-45.8,13.9-50.9c-0.3-8.2-18.4-6.8-21.5,3.1c-1.5,3.9-2.3,8.1-2.6,12.4c-2.3-6.6-5.9-11.7-11-15.4
	c-4.2-3.1-9-5.1-14-6.4c-5-1.3-10.1-2.1-14.9-2.6c-4.8-0.7-9.3-1.3-13-2.4c-3.7-1.2-6.5-2.8-8-5.7c-0.1-0.2-0.4-0.4-0.8-0.4
	c0,0,0,0,0,0c-0.3,0-0.5,0.2-0.6,0.4c-1.1,5.8-1.6,11-1.6,15.7c0,13.4,4.6,21.9,14.7,27.6c4.4,2.4,9.3,3.9,14.4,4.7
	c5.1,0.9,10.4,1.2,15.4,1.4c9.5,0.5,17.8,1,20.6,5.2c0.9,5.3,2,10.4,3,15.1c-6.3,1.4-12.5,1-18-3.3c-5-4-10.1-6.6-15.1-8.2
	c-5-1.6-9.8-2.2-14.3-2.2c-6.4,0-11.9,1.2-15.9,2.4c-4,1.2-6.4,2.4-6.4,2.4c-23.6,11.3-32.9,34-32.9,59.8
	c0,53.5,39.8,120.2,74.5,125.3c2.6,0.4,5.3,0.6,7.9,0.6c9,0,18.3-2.1,26.6-3.2c1.5-0.2,3-0.3,4.4-0.3c5,0,9.6,1.1,14.3,2.2
	c1.5,0.4,2.8,0.7,4.3,1C245,518.9,271.6,305.3,173.5,305.3z"/>
</svg>
