<?xml version="1.0" encoding="utf-8"?>
<!-- Generator: Adobe Illustrator 18.1.1, SVG Export Plug-In . SVG Version: 6.00 Build 0)  -->
<svg version="1.1" id="Layer_1" xmlns="http://www.w3.org/2000/svg" xmlns:xlink="http://www.w3.org/1999/xlink" x="0px" y="0px"
	 width="250px" height="250px" viewBox="0 250 250 250" enable-background="new 0 250 250 250" xml:space="preserve">
<g>
	<path fill-rule="evenodd" clip-rule="evenodd" d="M100.2,301h1.3h0h0h0h0h47h0h0h0h0h1.3c1.9,0,3.4-1.5,3.4-3.3
		c0-1.8-1.5-3.3-3.4-3.3h-1.3h0h0h0h0h-47h0h0h0h0h-1.3c-1.9,0-3.4,1.5-3.4,3.3C96.8,299.6,98.3,301,100.2,301z"/>
	<path fill-rule="evenodd" clip-rule="evenodd" d="M144.7,289.6c2.6-13.8,16.3-27,5.6-30.4c-10.2-4.2-32.6-12.3-39-6.6
		c-3.4,3.1,4.9,14.7,1.8,18.1c-2.9,3.2-17.4,0-17.4,0s5.6,10.1,8.2,18.9H144.7z"/>
	<path fill-rule="evenodd" clip-rule="evenodd" d="M154.9,305.6c-0.7,0.2-1.4,0.4-2.2,0.5l-0.1-0.1c-0.5,0.1-1.1,0.1-1.6,0.1H98.9
		c-0.6,0-1.1,0-1.6-0.1l-0.1,0.1c-0.7-0.1-1.4-0.2-2.2-0.5c-37,35.2-57,88.1-57,119.9c0,40.8,41.7,73.9,86.3,73.9h1.2
		c44.7,0,86.4-33.1,86.3-73.9C212,393.6,191.9,340.8,154.9,305.6z M156,423.6c-3.5,6.7-10.9,10-15.1,11.3c-0.5,0.2-0.9,0.3-1.3,0.4
		l4.6,12.5c0.4,1.2-0.3,2.4-1.4,2.8l-6.3,2c-1.1,0.4-2.4-0.3-2.8-1.4l-3.4-12.9c-0.3,0.1-0.7,0.2-1.3,0.4c-4.2,1.3-12.1,3-18.9-0.5
		c-8.9-4.6-11.6-16.5-11.7-16.9c-0.2-1.1,0.3-2.1,1.3-2.5c0,0,0.7-0.3,1.8-0.7c4.2-1.3,12.1-3,18.9,0.5c2.5,1.3,4.5,3.2,6.1,5.2
		l-3.5-13.3c-0.2,0-0.3,0.1-0.5,0.2c-4.2,1.3-12.1,2.9-18.9-0.5c-8.9-4.6-11.6-16.5-11.8-17c-0.2-1,0.3-2.1,1.3-2.5
		c0,0,0.7-0.2,1.8-0.6c4.1-1.3,12.1-3,18.9,0.5c1.9,1,3.6,2.3,5,3.8l-1.7-6.5c-2.9-1.4-11.1-6-13.7-14c-3-9.6,3.4-19.9,3.7-20.3
		c0.6-0.9,1.7-1.3,2.7-0.8c0.5,0.2,11.6,4.9,14.6,14.5c2.6,8-1.5,16.5-3.1,19.3l2.4,6.3c0.3-2,0.8-4.1,1.8-6
		c3.5-6.7,11-9.9,15.1-11.3c1.1-0.3,1.8-0.5,1.8-0.5c1.1-0.2,2.1,0.3,2.5,1.4c0.2,0.5,4.8,11.7,0.1,20.6
		c-3.5,6.7-10.9,9.9-15.1,11.2c-0.2,0.1-0.4,0.1-0.6,0.2l4.8,12.9c0.2-2.6,0.7-5.2,2-7.8c3.5-6.7,11-10,15.2-11.3
		c1.1-0.3,1.8-0.5,1.8-0.5c1-0.2,2.1,0.3,2.5,1.3C156.1,403.4,160.6,414.6,156,423.6z"/>
</g>
</svg>
