<?xml version="1.0" encoding="utf-8"?>
<!-- Generator: Adobe Illustrator 18.1.1, SVG Export Plug-In . SVG Version: 6.00 Build 0)  -->
<svg version="1.1" id="Layer_1" xmlns="http://www.w3.org/2000/svg" xmlns:xlink="http://www.w3.org/1999/xlink" x="0px" y="0px"
	 width="250px" height="250px" viewBox="0 250 250 250" enable-background="new 0 250 250 250" xml:space="preserve">
<g>
	<path fill-rule="evenodd" clip-rule="evenodd" d="M222.5,327.5c-2.9-3.7-8.4-4.4-12.1-1.4c-3.7,3-4.3,8.4-1.4,12.1
		c3,3.7,8.4,4.3,12.1,1.4C224.8,336.7,225.5,331.3,222.5,327.5z"/>
	<path fill-rule="evenodd" clip-rule="evenodd" d="M128.6,312.4c-16.4-2.3-33.5-1.1-50.2,3.8c10.3,5.6,18.2,10.7,26.1,16.2
		c-20.7,22.8-31,53.1-30,84.4c-22.3-7.6-47.3-8.2-71.3-1.2c6.3,2.2,12.7,4.9,19.1,8c17.4-2.4,35-0.7,51.2,5.4
		c-0.4,17.3-5.4,34.3-14.2,49.5c0.5,7.1,0.6,14,0.2,20.7c15.5-19.7,24.3-43.1,25.6-66.6c36.7,16.3,79.2,14.6,113.2-8.3
		c37.1-25,54.5-68.8,49.3-112.7C210.2,290.9,165,289.9,128.6,312.4L128.6,312.4z M86.5,420.1L86.5,420.1
		c-2.5-38.7,14.3-74.8,44.8-95.4c11.5-7.8,24.3-12.9,37.7-15.3c0.1,16.3,4.6,32.1,13.8,45.8c9.2,13.7,22.2,23.7,37.2,30
		c-7.3,11.5-16.9,21.5-28.4,29.2C161.2,434.8,121.4,436.9,86.5,420.1L86.5,420.1z M225.9,374.6L225.9,374.6
		c-13.7-5.4-25.3-14.3-33.3-26.1c-8-11.8-11.9-25.9-11.8-40.6c18.6-1.2,37.7,2.4,55.7,11C237.8,338.7,234,357.9,225.9,374.6z"/>
	<path fill-rule="evenodd" clip-rule="evenodd" d="M162.3,330.4c-1-5.4-1.5-10.9-1.5-16.4c-2.4,1.4-4.8,2.9-7.1,4.5
		c-33.6,22.7-54.9,58.4-56.9,94.7c7.1-28.7,31.5-59.8,65.1-82.5C162,330.6,162.1,330.5,162.3,330.4z"/>
	<path fill-rule="evenodd" clip-rule="evenodd" d="M198,383.4c-0.1,0.1-0.3,0.2-0.4,0.3C164,406.3,126,417.3,96.8,413.1
		c34.4,11.8,75.5,5.4,109.1-17.2c2.3-1.6,4.6-3.2,6.8-4.9C207.5,388.9,202.6,386.3,198,383.4z"/>
	<path fill-rule="evenodd" clip-rule="evenodd" d="M52,443.4c1.6,6.2,2.8,12.3,3.8,18.3c7.7-10.6,13.4-21.5,16.3-31.9
		c-10.8-1.2-22.9-0.1-35.7,3.2C41.6,436.1,46.8,439.6,52,443.4z"/>
</g>
</svg>
