<?xml version="1.0" encoding="utf-8"?>
<!-- Generator: Adobe Illustrator 18.1.1, SVG Export Plug-In . SVG Version: 6.00 Build 0)  -->
<svg version="1.1" id="Layer_1" xmlns="http://www.w3.org/2000/svg" xmlns:xlink="http://www.w3.org/1999/xlink" x="0px" y="0px"
	 width="250px" height="250px" viewBox="0 250 250 250" enable-background="new 0 250 250 250" xml:space="preserve">
<g>
	<path fill-rule="evenodd" clip-rule="evenodd" d="M75.6,428.5c4.2,4.6,1.1,6.9-2,11.8c-3,5-5.8,0.8-10,0c-4.2-0.8-5-8.1-5.9-14.1
		c0,0,0.2-0.4,0.7-3.4c0.4-3.1,2.9-0.4,7.6-0.8C70.8,421.6,71.3,423.9,75.6,428.5z"/>
	<path fill-rule="evenodd" clip-rule="evenodd" d="M32.4,425.2c0,0-12.2-12.6-14.6-20.6c-2.4-8.2-1.7-15.3,3-24.5
		c4.7-9.1,22.2-6.3,34.7-3.5c12.4,2.7,25.7,20.4,24.5,27.1c-1.2,6.9-6.7,6.9-12.1,7.2c-5.5,0.3-10.2,4.1-15.7,9.8
		C46.8,426.4,36.2,427.5,32.4,425.2z"/>
	<path fill-rule="evenodd" clip-rule="evenodd" d="M102.2,469.5c4.7,8,17,21,8,21.7c-9.1,0.7-36.4-11.6-45.3-18.2
		c-8.7-6.5-19.1-10.4-24.2-18.8c-5.1-8.4-4.2-14.9-4.2-14.9c6.1-2.7,12.8-2.6,21.6,2.4c8.8,5,17.1,5.8,21.6,6.2
		C84.2,448.4,97.6,461.4,102.2,469.5z"/>
	<path fill-rule="evenodd" clip-rule="evenodd" d="M116,427.9c6.5,13.4,19.1,45.2,13.3,49.4c-5.8,4.1-20.2-4.7-25.9-12.4
		c-5.6-7.6-18.3-27.6-18.3-27.6s-2.9-8.4-1.1-17.5c1.8-9.2-0.6-17.2,5.9-17.9C96.4,401.2,109.6,414.7,116,427.9z"/>
	<path fill-rule="evenodd" clip-rule="evenodd" d="M237.3,281.6c-2.1,1.9-8.9-3.9-10.4-7.7c-1.6-3.9-6.2-12.3-12.8-20.3
		c-6.5-8.1-20.6,1.8-22.1,8.7c-1.5,6.8-0.7,14.5,4.6,15c5,0.3,7,8.7,7.2,9.8c-0.6-0.8-5.3-6.9-9.9-7.2c-4.9-0.4-2.6,4.9-6.6,9
		c-2.7,2.9-7.6,7.5-10.4,10.1c-1.1-1-2.3-2.1-3.7-3.3c-5-4.7-11.7,2.2-14.3,9.4c-2.5,7.2-6.2,17.9-12.9,20.9c-6.7,3-14.4-0.1-39,0.1
		c-24.8,0.3-47.7,12.7-66.4,23.3c-18.9,10.6-24.6,25.4-28,29.9c-3.6,4.6-7.1,12.2-6.1,17.1c0,0-0.4,17.1,17.1,50.1
		c17.6,32.9,60.6,45.7,79.4,51.2c18.9,5.4,34.1-2.9,40.2-12.8c6-9.8,23.9-44.1,29.1-59.6c5.3-15.7,8.8-55.2,12.3-63.2
		c3.4-7.9,16.7-17.1,20-20.4c3.3-3.4,4.7-15.5,2.5-22.8c-0.2-0.8-0.5-1.6-0.8-2.3c2-3.5,4.2-7.1,6.6-9.5c6-6.4,5.3-1.1,11.5-1.1
		c6.4,0,17.6-6,19.2-14.4C245.1,283.2,239.5,279.8,237.3,281.6z M137,486.5c-0.4,8.2-8.6,10.2-12.1,10.9c-3.5,0.8-15.6,1.9-21.9-0.1
		c-6.3-2-20.1-7.6-32.2-12.1c-12.1-4.4-21.7-13.2-30.1-21.5c-8.4-8.3-26.8-44.4-30.7-54.7c-4.1-10.3-1.6-13-0.7-17.7
		c0.8-4.8,2.5-9.1,2.5-9.1s11-16.6,22-18.4c11-1.9,19.1,2.9,27.9,6.1c8.9,3.2,15,7.9,26.1,14.3c10.9,6.4,16.8,14.8,27.7,28.2
		c11.1,13.4,13.3,29.7,17.5,42.4C137,467.5,137.5,478.1,137,486.5z"/>
	<path fill-rule="evenodd" clip-rule="evenodd" d="M177.3,299.5c-0.2-0.2-0.4-0.3-0.5-0.5C177,299.2,177.2,299.3,177.3,299.5z"/>
	<path fill-rule="evenodd" clip-rule="evenodd" d="M190.5,306c-0.3-0.1-0.6-0.2-0.9-0.3C189.9,305.8,190.2,305.9,190.5,306z"/>
	<path fill-rule="evenodd" clip-rule="evenodd" d="M167.5,298.3c2.7-1.2,5.7,0.8,10.5,4.6c4.9,3.8,12.6,4,17.7,7.1
		c5.1,3.1,11.5,9.2,11.1,14.1c-0.4,4.9-5.1,7.1-6,4.9c-0.8-2.3-6-11.1-9.3-13c-3.4-2-14.3-4.7-15-0.9c-0.7,3.9-5.2,11.8-7.9,13.3
		c-2.6,1.5-9.4-2.7-9.8-5.8c-0.2-3-0.1-12.9,1.8-16.4C162.5,302.9,167.5,298.3,167.5,298.3z"/>
	<path fill-rule="evenodd" clip-rule="evenodd" d="M132.3,429.6c0,0-1.5-1.6,4.3,11.9c5.7,13.3,9.6,27.9,8.2,30.6
		c-1.3,2.6,3.3-2.3,6.4-11.8c3.2-9.5,17.7-42.7,18.5-57.9c0.8-15.2,2.3-34.7,2.1-37.4c-0.2-2.7-2.2-16.1-6.6,7.6
		c-4.2,23.7-10.6,33.5-18.3,44.5C139.4,428.1,132.3,429.6,132.3,429.6z"/>
	<path fill-rule="evenodd" clip-rule="evenodd" d="M33.8,361.2c0,0,22-2.6,30.8,0.2c8.7,2.7,14.1,0.4,24.6-7.6
		c10.5-7.9,27.9-12.8,39-13c11-0.3,22.2-4.9,24.7-7.1c2.4-2.3-4.2,2.3-17.5-1.1c-13.3-3.4-56.4,1.4-74.8,13.5
		C46.2,354.8,33.8,361.2,33.8,361.2z"/>
	<path fill-rule="evenodd" clip-rule="evenodd" d="M80,403.7c-1.2,6.9-6.7,6.9-12.1,7.2c-5.5,0.3-10.2,4.1-15.7,9.8
		c-5.4,5.8-16,6.8-19.8,4.5c0,0-12.2-12.6-14.6-20.6c-2.4-8.2-1.7-15.3,3-24.5c4.7-9.1,22.2-6.3,34.7-3.5
		C67.8,379.3,81.1,396.9,80,403.7z"/>
	<path fill-rule="evenodd" clip-rule="evenodd" d="M129.3,477.3c-5.8,4.1-20.2-4.7-25.9-12.4c-5.6-7.6-18.3-27.6-18.3-27.6
		s-2.9-8.4-1.1-17.5c1.8-9.2-0.6-17.2,5.9-17.9c6.4-0.7,19.6,12.8,26.1,26C122.5,441.3,135.1,473.1,129.3,477.3z"/>
	<path fill-rule="evenodd" clip-rule="evenodd" d="M73.6,440.3c-3,5-5.8,0.8-10,0c-4.2-0.8-5-8.1-5.9-14.1c0,0,0.2-0.4,0.7-3.4
		c0.4-3.1,2.9-0.4,7.6-0.8c4.8-0.3,5.2,1.9,9.6,6.6C79.8,433.1,76.7,435.4,73.6,440.3z"/>
	<path fill-rule="evenodd" clip-rule="evenodd" d="M110.2,491.2c-9.1,0.7-36.4-11.6-45.3-18.2c-8.7-6.5-19.1-10.4-24.2-18.8
		c-5.1-8.4-4.2-14.9-4.2-14.9c6.1-2.7,12.8-2.6,21.6,2.4c8.8,5,17.1,5.8,21.6,6.2c4.5,0.4,18,13.4,22.5,21.5
		C106.9,477.5,119.2,490.5,110.2,491.2z"/>
</g>
</svg>
