<!-- Generator: Adobe Illustrator 18.1.1, SVG Export Plug-In  -->
<svg version="1.1"
   xmlns="http://www.w3.org/2000/svg" xmlns:xlink="http://www.w3.org/1999/xlink" xmlns:a="http://ns.adobe.com/AdobeSVGViewerExtensions/3.0/"
   x="0px" y="0px" width="16px" height="16px" viewBox="0 0 16 16" enable-background="new 0 0 16 16" xml:space="preserve">
<defs>
</defs>
<path d="M11.4,10.1h-0.7l-0.3-0.2c0.9-1,1.4-2.4,1.4-3.9C11.9,2.7,9.2,0,5.9,0S0,2.7,0,5.9s2.7,5.9,5.9,5.9
  c1.5,0,2.8-0.5,3.9-1.4l0.2,0.3v0.7l4.6,4.6l1.4-1.4L11.4,10.1z M5.9,10.1c-2.3,0-4.1-1.8-4.1-4.1s1.8-4.1,4.1-4.1s4.1,1.8,4.1,4.1
  S8.2,10.1,5.9,10.1z"/>
</svg>
