<?xml version="1.0" encoding="utf-8"?>
<!-- Generator: Adobe Illustrator 18.1.1, SVG Export Plug-In . SVG Version: 6.00 Build 0)  -->
<svg version="1.1" id="Layer_1" xmlns="http://www.w3.org/2000/svg" xmlns:xlink="http://www.w3.org/1999/xlink" x="0px" y="0px"
	 width="80px" height="80px" viewBox="0 0 80 80" enable-background="new 0 0 80 80" xml:space="preserve">
<g transform="translate(1 1)">
	<g>
		<g>
			<g>
				<path fill="#039BE5" d="M63.3,32.9l-7.2-8c-0.6-0.6-1.3-0.9-2.1-0.9h-8.3v-1.7c0-1.8-1.4-3.2-3.2-3.2H17.2
					c-1.8,0-3.2,1.4-3.2,3.2v20V44v7.1c0,1.6,1.3,2.9,2.9,2.9h1.3c0.4,2.8,2.8,5,5.8,5s5.4-2.1,5.8-5H44h1.7h2.6
					c0.4,2.8,2.8,5,5.8,5c3,0,5.4-2.1,5.8-5h4.2H64V34.8C64,34.1,63.8,33.4,63.3,32.9z M61.9,34c0.2,0.2,0.3,0.5,0.3,0.7v2.6H49.8
					V29h7.6L61.9,34z M15.7,36.5h11.6c0.5,0,0.8-0.3,0.8-0.8c0-0.5-0.3-0.8-0.8-0.8H15.7v-2.5H24c0.5,0,0.8-0.3,0.8-0.8
					s-0.3-0.8-0.8-0.8h-8.3v-8.4c0-0.9,0.7-1.6,1.6-1.6h25.1c0.9,0,1.6,0.7,1.6,1.6V24v18.3H15.7V36.5z M24,57.3
					c-2.3,0-4.2-1.8-4.2-4.2c0-2.3,1.8-4.2,4.2-4.2c2.3,0,4.2,1.8,4.2,4.2C28.1,55.5,26.3,57.3,24,57.3z M44,52.3H29.7
					c-0.4-2.7-2.5-4.7-5.2-5c0,0,0,0-0.1,0c-0.1,0-0.1,0-0.2,0c-0.1,0-0.2,0-0.3,0c-0.1,0-0.2,0-0.3,0c-0.1,0-0.1,0-0.2,0
					c0,0,0,0-0.1,0c-2.7,0.2-4.8,2.3-5.2,5h-1.3c-0.7,0-1.2-0.6-1.2-1.2V44H44V52.3z M53.9,57.3c-2.3,0-4.2-1.8-4.2-4.2
					c0-2.3,1.8-4.2,4.2-4.2c2.3,0,4.2,1.8,4.2,4.2C58.1,55.5,56.3,57.3,53.9,57.3z M59.7,52.3c-0.4-2.7-2.5-4.7-5.2-5c0,0,0,0-0.1,0
					c-0.1,0-0.1,0-0.2,0c-0.1,0-0.2,0-0.3,0c-0.1,0-0.2,0-0.3,0c-0.1,0-0.1,0-0.2,0c0,0,0,0-0.1,0c-2.7,0.2-4.8,2.3-5.2,5h-2.6V44
					v-1.7V25.7h8.3c0.2,0,0.6,0.2,0.8,0.3l1.2,1.3h-6.4c-0.7,0-1.4,0.7-1.4,1.4v8.8c0,0.7,0.7,1.4,1.4,1.4h12.7v4.2h-4.2
					c-0.5,0-0.8,0.3-0.8,0.8c0,0.5,0.3,0.8,0.8,0.8h4.2v7.5L59.7,52.3L59.7,52.3z"/>
				<path fill="#039BE5" d="M24,51.5c-0.9,0-1.7,0.7-1.7,1.7s0.7,1.7,1.7,1.7s1.7-0.7,1.7-1.7S24.9,51.5,24,51.5z"/>
				<path fill="#039BE5" d="M53.9,51.5c-0.9,0-1.7,0.7-1.7,1.7s0.7,1.7,1.7,1.7c0.9,0,1.7-0.7,1.7-1.7S54.8,51.5,53.9,51.5z"/>
			</g>
		</g>
	</g>
</g>
</svg>
