<?xml version="1.0" encoding="utf-8"?>
<!-- Generator: Adobe Illustrator 18.1.1, SVG Export Plug-In . SVG Version: 6.00 Build 0)  -->
<svg version="1.1" id="Layer_1" xmlns="http://www.w3.org/2000/svg" xmlns:xlink="http://www.w3.org/1999/xlink" x="0px" y="0px"
	 width="80px" height="80px" viewBox="0 0 80 80" enable-background="new 0 0 80 80" xml:space="preserve">
<path fill="#039BE5" d="M42.5,65h-3.1c-1.5,0-2.7-1.2-2.7-2.7v-0.1c0-1.5,1.2-2.7,2.7-2.7h3.1c1.2,0,2.3,0.9,2.6,2h7.5
	c4.9,0,8.9-4,8.9-8.9v-3.3h-0.6v1.8c0,1.4-1.1,2.5-2.5,2.5h-2.1c-0.3,0-0.6-0.2-0.7-0.5h-0.9c-1.1,0-2-0.8-2-1.9V39.5
	c0-1,0.9-1.9,2-1.9h0.9c0.1-0.3,0.4-0.5,0.7-0.5h2.3c1.3,0,2.4,1.1,2.4,2.4v2h0.6v-2.4c0-12.5-9.6-22.6-21.4-22.6
	c-11.8,0-21.4,10.2-21.4,22.6v2.4h0.6v-2c0-1.3,1.1-2.4,2.4-2.4h2.3c0.3,0,0.6,0.2,0.7,0.5h0.9c1.1,0,2,0.8,2,1.9v11.9
	c0,1-0.9,1.9-2,1.9h-0.9c-0.1,0.3-0.4,0.5-0.7,0.5h-2.1c-1.4,0-2.5-1.1-2.5-2.5v-1.8h-1.3c-0.4,0-0.7-0.3-0.7-0.7v-9.4
	C17.2,25.8,27.5,15,40.1,15C52.7,15,63,25.8,63,39.1v13.5C63,58.3,58.3,63,52.6,63h-7.5C44.8,64.1,43.8,65,42.5,65z M39.4,61
	c-0.7,0-1.2,0.5-1.2,1.2v0.1c0,0.7,0.5,1.2,1.2,1.2h3.1c0.7,0,1.2-0.5,1.2-1.2v-0.1c0-0.7-0.5-1.2-1.2-1.2H39.4z M57.1,52.2h1.3
	c0.6,0,1.1-0.5,1.1-1.1V39.5c0-0.5-0.4-0.9-0.9-0.9h-1.4V52.2z M21.6,38.6c-0.5,0-0.9,0.4-0.9,0.9v11.6c0,0.6,0.5,1.1,1.1,1.1h1.4
	V38.6H21.6z M54.7,39.1c-0.3,0-0.5,0.2-0.5,0.4v11.9c0,0.2,0.2,0.4,0.5,0.4h0.9V39.1H54.7z M24.6,51.7h0.8c0.3,0,0.5-0.2,0.5-0.4
	V39.5c0-0.2-0.2-0.4-0.5-0.4h-0.8V51.7z M60.9,47.8h0.6V43h-0.6V47.8z M18.7,47.8h0.6V43h-0.6V47.8z"/>
</svg>
