<?xml version="1.0" encoding="utf-8"?>
<!-- Generator: Adobe Illustrator 18.1.1, SVG Export Plug-In . SVG Version: 6.00 Build 0)  -->
<svg version="1.1" id="Layer_1" xmlns="http://www.w3.org/2000/svg" xmlns:xlink="http://www.w3.org/1999/xlink" x="0px" y="0px"
	 width="80px" height="80px" viewBox="0 0 80 80" enable-background="new 0 0 80 80" xml:space="preserve">
<g>
	<g>
		<path fill="#039BE5" d="M38.2,43.4c0,2,1.6,3.5,3.6,3.5c0.6,0,1.8,0,5.4-7.4c0.2-0.5,0.1-1-0.2-1.4c-0.4-0.4-0.9-0.5-1.4-0.2
			C38.2,41.5,38.2,42.8,38.2,43.4z M41.7,45.2c-0.9,0-1.7-0.8-1.7-1.7c0.2-0.4,1.5-1.4,4.9-3.2C43.1,43.7,42.1,44.9,41.7,45.2z"/>
		<path fill="#039BE5" d="M39.1,36.9H40c0.5,0,0.9-0.4,0.9-0.9s-0.4-0.9-0.9-0.9h-0.9c-0.5,0-0.9,0.4-0.9,0.9S38.6,36.9,39.1,36.9z"
			/>
		<path fill="#039BE5" d="M40,51.8h-0.9c-0.5,0-0.9,0.4-0.9,0.9s0.4,0.9,0.9,0.9H40c0.5,0,0.9-0.4,0.9-0.9S40.5,51.8,40,51.8z"/>
		<path fill="#039BE5" d="M32.1,43.1h-0.9c-0.5,0-0.9,0.4-0.9,0.9s0.4,0.9,0.9,0.9h0.9c0.5,0,0.9-0.4,0.9-0.9S32.6,43.1,32.1,43.1z"
			/>
		<path fill="#039BE5" d="M47,43.9c0,0.5,0.4,0.9,0.9,0.9h0.9c0.5,0,0.9-0.4,0.9-0.9s-0.4-0.9-0.9-0.9h-0.9
			C47.4,43.1,47,43.5,47,43.9z"/>
		<path fill="#039BE5" d="M60.2,15.9V15H19.8v0.9c0,6,6.1,11.4,14,13.3v4c-4.2,2.2-7,6.6-7,11.6c0,1.9,0.4,3.7,1.1,5.3h-3
			c-1.1,0-2.1,0.5-2.8,1.4c-0.6,0.9-0.8,2.1-0.4,3.1l2.5,6.9h4.2c-0.4,1-1.3,1.8-2.5,1.8c-0.5,0-0.9,0.4-0.9,0.9
			c0,0.5,0.4,0.9,0.9,0.9c2.1,0,3.9-1.5,4.3-3.5h20.4c0.4,2,2.2,3.5,4.3,3.5c0.5,0,0.9-0.4,0.9-0.9c0-0.5-0.4-0.9-0.9-0.9
			c-1.1,0-2.1-0.7-2.5-1.8h4.2l2.5-6.9c0.4-1,0.2-2.2-0.4-3.1c-0.6-0.9-1.7-1.4-2.8-1.4H52c0.7-1.6,1.1-3.4,1.1-5.3
			c0-5-2.8-9.4-7-11.6v-4C54.1,27.3,60.2,21.9,60.2,15.9z M21.6,16.8h36.7c-0.6,4.4-5.6,9.1-12.7,10.7l-0.6,0.1
			c-0.7,0.1-1.4,0.3-2.1,0.3c-0.2,0-0.4,0.1-0.7,0.1c-0.3,0-0.5,0-0.8,0.1c-0.4,0-0.8,0-1.2,0c-0.2,0-0.4,0-0.6,0
			c-0.4,0-0.8,0-1.2,0c-0.3,0-0.5,0-0.8-0.1c-0.2,0-0.4,0-0.7-0.1c-0.7-0.1-1.4-0.2-2.1-0.3l-0.6-0.1C27.2,25.8,22.2,21.2,21.6,16.8
			z M51,51.8h4.9c0.5,0,1,0.3,1.3,0.7c0.3,0.4,0.4,1,0.2,1.5l-2.1,5.7H25.5L23.4,54c-0.2-0.5-0.1-1,0.2-1.5c0.3-0.4,0.8-0.7,1.3-0.7
			h3.9c0,0,0,0,0,0.1c0.1,0.2,0.2,0.3,0.3,0.5c0.1,0.1,0.2,0.3,0.3,0.4c0.2,0.2,0.4,0.5,0.6,0.7c0.1,0.1,0.2,0.3,0.4,0.4
			c0.1,0.1,0.3,0.3,0.4,0.4c0.1,0.1,0.2,0.2,0.3,0.3c0.3,0.2,0.6,0.5,0.9,0.7c0.1,0.1,0.2,0.1,0.2,0.2c0.2,0.1,0.4,0.3,0.6,0.4
			c0.1,0,0.1,0.1,0.2,0.1c0.4,0.2,0.7,0.4,1.1,0.6c0.1,0,0.2,0.1,0.3,0.1c0.2,0.1,0.4,0.2,0.6,0.3c0.1,0,0.2,0.1,0.3,0.1
			c0.3,0.1,0.6,0.2,1,0.3c0.2,0.1,0.4,0.1,0.6,0.1c0.1,0,0.3,0.1,0.4,0.1c0.3,0.1,0.7,0.1,1,0.2c0.1,0,0.2,0,0.3,0
			c0.4,0,0.8,0.1,1.2,0.1s0.8,0,1.2-0.1c0.1,0,0.2,0,0.3,0c0.3,0,0.7-0.1,1-0.2c0.2,0,0.3-0.1,0.4-0.1c0.2,0,0.4-0.1,0.6-0.1
			c0.3-0.1,0.7-0.2,1-0.3c0.1,0,0.2-0.1,0.3-0.1c0.2-0.1,0.4-0.2,0.6-0.3c0.1,0,0.2-0.1,0.3-0.1c0.4-0.2,0.8-0.4,1.1-0.6
			c0.1,0,0.1-0.1,0.2-0.1c0.2-0.1,0.4-0.3,0.6-0.4c0.1-0.1,0.2-0.1,0.2-0.2c0.3-0.2,0.6-0.5,0.9-0.7c0.1-0.1,0.2-0.2,0.3-0.3
			c0.1-0.1,0.3-0.3,0.4-0.4c0.1-0.1,0.2-0.3,0.4-0.4c0.2-0.2,0.4-0.4,0.6-0.7c0.1-0.1,0.2-0.3,0.3-0.4C50.8,52.2,50.9,52.1,51,51.8
			C51,51.9,51,51.9,51,51.8z M51.3,44.8c0,1.9-0.5,3.8-1.4,5.4l-0.1,0.2c-0.1,0.1-0.1,0.2-0.2,0.4c-0.2,0.3-0.4,0.6-0.6,0.9
			c-0.1,0.1-0.1,0.2-0.2,0.2c-0.1,0.2-0.2,0.3-0.4,0.4c-0.1,0.1-0.1,0.1-0.2,0.2c-0.3,0.3-0.5,0.6-0.8,0.8c0,0-0.1,0.1-0.1,0.1
			c-0.2,0.1-0.3,0.3-0.5,0.4c0,0-0.1,0.1-0.1,0.1c-0.5,0.4-1.1,0.8-1.7,1.1c-0.1,0-0.1,0-0.2,0.1c-0.3,0.2-0.7,0.3-1.1,0.4
			c-0.1,0-0.1,0.1-0.2,0.1c-0.2,0.1-0.3,0.1-0.5,0.2c-0.2,0-0.3,0.1-0.5,0.1c-0.2,0-0.3,0.1-0.5,0.1c-0.3,0.1-0.5,0.1-0.8,0.1
			c-0.1,0-0.2,0-0.3,0c-0.3,0-0.7,0.1-1,0.1c-0.3,0-0.7,0-1-0.1c-0.1,0-0.2,0-0.3,0c-0.3,0-0.6-0.1-0.8-0.1c-0.2,0-0.3-0.1-0.5-0.1
			c-0.2,0-0.3-0.1-0.5-0.1c-0.2,0-0.3-0.1-0.5-0.2c-0.1,0-0.1-0.1-0.2-0.1c-0.4-0.1-0.7-0.3-1.1-0.4C35,55,35,55,34.9,55
			c-0.6-0.3-1.2-0.7-1.7-1.1c0,0-0.1-0.1-0.1-0.1c-0.2-0.1-0.3-0.3-0.5-0.4c0,0-0.1-0.1-0.1-0.1c-0.3-0.3-0.6-0.5-0.8-0.8
			c-0.1-0.1-0.1-0.1-0.2-0.2c-0.1-0.1-0.3-0.3-0.4-0.4c-0.1-0.1-0.1-0.2-0.2-0.2c-0.2-0.3-0.4-0.6-0.6-0.9c-0.1-0.1-0.1-0.2-0.2-0.4
			L30,50.2c-0.9-1.6-1.4-3.4-1.4-5.4c0-4.6,2.7-8.5,6.6-10.3c0.4-0.2,0.7-0.3,1.1-0.5c0,0,0,0,0,0c2-0.7,4.1-0.8,6.2-0.3
			c0,0,0,0,0,0c0.4,0.1,0.8,0.2,1.2,0.3c0,0,0,0,0.1,0c0.4,0.1,0.7,0.3,1.1,0.5C48.7,36.4,51.3,40.3,51.3,44.8z M44.4,32.4
			c0,0-0.1,0-0.1,0c-0.2-0.1-0.5-0.2-0.8-0.2c-0.2,0-0.3-0.1-0.5-0.1c-0.2,0-0.4-0.1-0.6-0.1c-0.2,0-0.5-0.1-0.7-0.1
			c-0.2,0-0.3,0-0.5-0.1c-0.4,0-0.8-0.1-1.2-0.1c-0.4,0-0.8,0-1.2,0.1c-0.2,0-0.3,0-0.5,0.1c-0.2,0-0.5,0.1-0.7,0.1
			c-0.2,0-0.4,0.1-0.6,0.1c-0.2,0-0.3,0.1-0.5,0.1c-0.3,0.1-0.5,0.1-0.7,0.2c0,0-0.1,0-0.1,0v-2.9c0.7,0.1,1.4,0.2,2.2,0.3
			c0,0,0,0,0.1,0c0.7,0.1,1.4,0.1,2.2,0.1s1.5,0,2.2-0.1c0,0,0,0,0.1,0c0.7-0.1,1.4-0.2,2.2-0.3V32.4z"/>
		<path fill="#039BE5" d="M39.1,25.5C39.1,25.5,39.1,25.5,39.1,25.5c0.5,0,0.9-0.4,0.9-0.9c0-0.5-0.4-0.9-0.9-0.9c0,0,0,0,0,0
			c-2.2,0-4.2-0.3-6-1c-0.5-0.2-1,0.1-1.1,0.5c-0.2,0.5,0.1,1,0.5,1.1C34.5,25.2,36.7,25.5,39.1,25.5z"/>
		<path fill="#039BE5" d="M29.5,19.4c0-0.5-0.4-0.9-0.9-0.9c-0.5,0-0.9,0.4-0.9,0.9c0,1.2,0.6,2.3,1.6,3.1c0.2,0.1,0.4,0.2,0.6,0.2
			c0.2,0,0.5-0.1,0.7-0.3c0.3-0.4,0.3-0.9-0.1-1.2C29.8,20.7,29.5,20,29.5,19.4z"/>
	</g>
</g>
</svg>
