<?xml version="1.0" encoding="utf-8"?>
<!-- Generator: Adobe Illustrator 18.1.1, SVG Export Plug-In . SVG Version: 6.00 Build 0)  -->
<svg version="1.1" id="Layer_1" xmlns="http://www.w3.org/2000/svg" xmlns:xlink="http://www.w3.org/1999/xlink" x="0px" y="0px"
	 width="80px" height="80px" viewBox="0 0 80 80" enable-background="new 0 0 80 80" xml:space="preserve">
<g>
	<g>
		<path fill="#039BE5" d="M62.7,35.4h-2.1c-0.5-2.4-1.4-4.6-2.7-6.6l1.5-1.5c0.9-0.9,0.9-2.4,0-3.3L56,20.7c-0.4-0.4-1-0.7-1.6-0.7
			c-0.6,0-1.2,0.2-1.6,0.7l-1.5,1.5c-2-1.3-4.3-2.2-6.6-2.7v-2.1c0-1.3-1-2.3-2.3-2.3h-4.7c-1.3,0-2.3,1-2.3,2.3v2.1
			c-2.4,0.5-4.6,1.4-6.6,2.7l-1.5-1.5c-0.4-0.4-1-0.7-1.6-0.7s-1.2,0.2-1.6,0.7L20.7,24c-0.9,0.9-0.9,2.4,0,3.3l1.5,1.5
			c-1.3,2-2.2,4.3-2.7,6.6h-2.1c-1.3,0-2.3,1-2.3,2.3v4.7c0,1.3,1,2.3,2.3,2.3h2.1c0.5,2.4,1.4,4.6,2.7,6.6l-1.5,1.5
			c-0.4,0.4-0.7,1-0.7,1.6s0.2,1.2,0.7,1.6l3.3,3.3c0.4,0.4,1,0.7,1.6,0.7s1.2-0.2,1.6-0.7l1.5-1.5c2,1.3,4.3,2.2,6.6,2.7v2.1
			c0,1.3,1,2.3,2.3,2.3h4.7c1.3,0,2.3-1,2.3-2.3v-2.1c2.4-0.5,4.6-1.4,6.6-2.7l1.5,1.5c0.4,0.4,1,0.7,1.6,0.7s1.2-0.2,1.6-0.7
			l3.3-3.3c0.4-0.4,0.7-1,0.7-1.6c0-0.6-0.2-1.2-0.7-1.6l-1.5-1.5c1.3-2,2.2-4.3,2.7-6.6h2.1c1.3,0,2.3-1,2.3-2.3v-4.7
			C65,36.4,64,35.4,62.7,35.4z M63.5,42.3c0,0.5-0.4,0.8-0.8,0.8H60c-0.4,0-0.7,0.2-0.7,0.6c-0.5,2.6-1.5,5-3,7.2
			c-0.2,0.3-0.2,0.7,0.1,0.9l1.9,1.9c0.2,0.2,0.2,0.4,0.2,0.6c0,0.2-0.1,0.4-0.2,0.6L55,58.3c-0.2,0.2-0.4,0.2-0.6,0.2
			c-0.2,0-0.4-0.1-0.6-0.2l-1.9-1.9c-0.2-0.2-0.6-0.3-0.9-0.1c-2.2,1.5-4.6,2.5-7.2,3c-0.3,0.1-0.6,0.4-0.6,0.7v2.7
			c0,0.5-0.4,0.8-0.8,0.8h-4.7c-0.5,0-0.8-0.4-0.8-0.8V60c0-0.4-0.2-0.7-0.6-0.7c-2.6-0.5-5-1.5-7.2-3c-0.1-0.1-0.3-0.1-0.4-0.1
			c-0.2,0-0.4,0.1-0.5,0.2l-1.9,1.9c-0.2,0.2-0.4,0.2-0.6,0.2s-0.4-0.1-0.6-0.2L21.7,55c-0.2-0.2-0.2-0.4-0.2-0.6
			c0-0.2,0.1-0.4,0.2-0.6l1.9-1.9c0.2-0.2,0.3-0.6,0.1-0.9c-1.5-2.2-2.5-4.6-3-7.2c-0.1-0.3-0.4-0.6-0.7-0.6h-2.7
			c-0.5,0-0.8-0.4-0.8-0.8v-4.7c0-0.5,0.4-0.8,0.8-0.8H20c0.4,0,0.7-0.2,0.7-0.6c0.5-2.6,1.5-5,3-7.2c0.2-0.3,0.2-0.7-0.1-0.9
			l-1.9-1.9c-0.3-0.3-0.3-0.9,0-1.2l3.3-3.3c0.2-0.2,0.4-0.2,0.6-0.2s0.4,0.1,0.6,0.2l1.9,1.9c0.2,0.2,0.6,0.3,0.9,0.1
			c2.2-1.5,4.6-2.5,7.2-3c0.3-0.1,0.6-0.4,0.6-0.7v-2.7c0-0.5,0.4-0.8,0.8-0.8h4.7c0.5,0,0.8,0.4,0.8,0.8V20c0,0.4,0.2,0.7,0.6,0.7
			c2.6,0.5,5,1.5,7.2,3c0.3,0.2,0.7,0.2,0.9-0.1l1.9-1.9c0.2-0.2,0.4-0.2,0.6-0.2s0.4,0.1,0.6,0.2l3.3,3.3c0.3,0.3,0.3,0.9,0,1.2
			l-1.9,1.9c-0.2,0.2-0.3,0.6-0.1,0.9c1.5,2.2,2.5,4.6,3,7.2c0.1,0.3,0.4,0.6,0.7,0.6h2.7c0.5,0,0.8,0.4,0.8,0.8V42.3z"/>
		<path fill="#039BE5" d="M26.6,40c0-7.4,6-13.4,13.4-13.4c1.8,0,3.6,0.4,5.2,1c0.4,0.2,0.8,0,1-0.4c0.2-0.4,0-0.8-0.4-1
			c-1.8-0.8-3.8-1.2-5.8-1.2c-8.2,0-14.8,6.6-14.8,14.8c0,3.4,1.2,6.7,3.3,9.3c0.1,0.2,0.4,0.3,0.6,0.3c0.2,0,0.3-0.1,0.5-0.2
			c0.3-0.3,0.4-0.7,0.1-1C27.7,46,26.6,43.1,26.6,40z"/>
		<path fill="#039BE5" d="M52.7,33.8c-0.4,0.2-0.5,0.6-0.4,1c0.7,1.6,1,3.4,1,5.2c0,7.4-6,13.4-13.4,13.4c-3,0-6-1.1-8.4-3
			c-0.3-0.3-0.8-0.2-1,0.1c-0.3,0.3-0.2,0.8,0.1,1c2.6,2.1,5.9,3.3,9.3,3.3c8.2,0,14.8-6.7,14.8-14.8c0-2-0.4-3.9-1.2-5.8
			C53.5,33.9,53.1,33.7,52.7,33.8z"/>
		<path fill="#039BE5" d="M48.4,29.6c0.7,0.6,1.4,1.3,2,2c0.1,0.2,0.4,0.3,0.6,0.3c0.2,0,0.3-0.1,0.5-0.2c0.3-0.3,0.4-0.7,0.1-1
			c-0.7-0.8-1.4-1.6-2.2-2.2c-0.3-0.3-0.8-0.2-1,0.1C48,28.9,48.1,29.4,48.4,29.6z"/>
		<path fill="#039BE5" d="M40,28.3c-6.4,0-11.7,5.2-11.7,11.7S33.6,51.7,40,51.7S51.7,46.4,51.7,40S46.4,28.3,40,28.3z M40,50.2
			c-5.6,0-10.2-4.6-10.2-10.2S34.4,29.8,40,29.8S50.2,34.4,50.2,40S45.6,50.2,40,50.2z"/>
	</g>
</g>
</svg>
