<?xml version="1.0" encoding="utf-8"?>
<!-- Generator: Adobe Illustrator 18.1.1, SVG Export Plug-In . SVG Version: 6.00 Build 0)  -->
<svg version="1.1" id="Layer_1" xmlns="http://www.w3.org/2000/svg" xmlns:xlink="http://www.w3.org/1999/xlink" x="0px" y="0px"
	 width="80px" height="80px" viewBox="0 0 80 80" enable-background="new 0 0 80 80" xml:space="preserve">
<path fill="#039BE5" d="M65,24.8L55.1,15H42.7l-4.9,4.9c-12.2-1-22,5.8-22.1,5.9c-0.4,0.3-0.5,0.8-0.2,1.2c0.2,0.2,0.4,0.4,0.7,0.4
	c0.2,0,0.4-0.1,0.5-0.2c0.1-0.1,8.6-6,19.4-5.7L20.3,37.3l0,0L15,42.7L37.3,65l8.9-8.9c1.8,1,4,1.4,6.1,1.4c3.1,0,6.1-1,8.1-2.9
	c6.5-6.5,3.9-13.7,3.1-15.6l1.6-1.6L65,24.8L65,24.8z M54.4,16.8l8.8,8.8v11.1L45.9,53.9c-3.6-2.6-4.7-7.5-3.1-13.8
	c0.1-0.5-0.2-1-0.6-1.1c-0.5-0.1-1,0.2-1.1,0.6c-2.3,9,0.8,13.5,3.5,15.6l-2,2L22.8,37.4l15.7-15.6c3.7,0.4,7.6,1.7,11.6,4.1
	c0,0.2-0.1,0.4-0.1,0.6c0,1.9,1.6,3.5,3.5,3.5s3.5-1.6,3.5-3.5S55.4,23,53.5,23c-1.1,0-2,0.5-2.7,1.3c-3.6-2.3-7.3-3.5-10.7-4.1
	l3.4-3.4H54.4z M52.1,27.2c0.4,0.3,0.9,0.2,1.2-0.2c0.3-0.4,0.2-0.9-0.2-1.2c-0.3-0.2-0.5-0.4-0.8-0.6c0.3-0.3,0.7-0.5,1.2-0.5
	c0.9,0,1.7,0.8,1.7,1.7c0,0.9-0.8,1.7-1.7,1.7c-0.7,0-1.3-0.4-1.6-1.1C52,27.2,52,27.2,52.1,27.2z M17.5,42.7l4.1-4.1l19.8,19.8
	l-4.1,4.1L17.5,42.7z M59.1,53.4c-2.3,2.3-7.4,3.3-11.5,1.4L62,40.3C62.9,42.5,64.3,48.1,59.1,53.4z"/>
</svg>
