<?xml version="1.0" encoding="utf-8"?>
<!-- Generator: Adobe Illustrator 18.1.1, SVG Export Plug-In . SVG Version: 6.00 Build 0)  -->
<svg version="1.1" id="Layer_1" xmlns="http://www.w3.org/2000/svg" xmlns:xlink="http://www.w3.org/1999/xlink" x="0px" y="0px"
	 width="35px" height="35px" viewBox="-142 108 35 35" enable-background="new -142 108 35 35" xml:space="preserve">
<path d="M-110.5,124.4h-2.3v-2.3h-2.3v2.3h-2.3v2.3h2.3v2.3h2.3v-2.3h2.3 M-127.6,124.4v2.7h4.6c-0.2,1.1-1.4,3.4-4.6,3.4
	c-2.7,0-4.9-2.3-4.9-5s2.2-5,4.9-5c1.6,0,2.6,0.7,3.2,1.3l2.2-2.1c-1.4-1.4-3.2-2.2-5.4-2.2c-4.5,0-8,3.5-8,8s3.5,8,8,8
	c4.6,0,7.7-3.2,7.7-7.8c0-0.6,0-0.9-0.1-1.4L-127.6,124.4L-127.6,124.4z"/>
</svg>
