<?xml version="1.0" encoding="utf-8"?>
<!-- Generator: Adobe Illustrator 18.1.1, SVG Export Plug-In . SVG Version: 6.00 Build 0)  -->
<svg version="1.1" id="Layer_1" xmlns="http://www.w3.org/2000/svg" xmlns:xlink="http://www.w3.org/1999/xlink" x="0px" y="0px"
	 width="35px" height="35px" viewBox="-142 108 35 35" enable-background="new -142 108 35 35" xml:space="preserve">
<g>
	<g>
		<path d="M-114.7,119.4c-0.7,0.3-1.5,0.5-2.3,0.6c0.8-0.5,1.5-1.3,1.8-2.2c-0.8,0.5-1.6,0.8-2.6,1c-0.7-0.8-1.8-1.3-2.9-1.3
			c-2.2,0-4,1.8-4,4c0,0.3,0,0.6,0.1,0.9c-3.4-0.1-6.4-1.7-8.4-4.2c-0.3,0.6-0.5,1.3-0.5,2c0,1.4,0.7,2.6,1.8,3.4
			c-0.7,0-1.3-0.2-1.8-0.5v0.1c0,2,1.4,3.6,3.2,4c-0.3,0.1-0.7,0.1-1.1,0.1c-0.3,0-0.5,0-0.8-0.1c0.5,1.6,2,2.8,3.8,2.8
			c-1.4,1.1-3.1,1.7-5,1.7c-0.3,0-0.6,0-1-0.1c1.8,1.1,3.9,1.8,6.2,1.8c7.4,0,11.5-6.2,11.5-11.5v-0.5
			C-115.9,120.9-115.2,120.2-114.7,119.4z"/>
	</g>
</g>
</svg>
